{
  "accessors": [
    {
      "bufferView": 1,
      "componentType": 5126,
      "count": 14408,
      "max": [
        82.179428100585938,
        42.021141052246094,
        11.235066413879395
      ],
      "min": [
        69.821731567382812,
        29.978858947753906,
        -2.2794742584228516
      ],
      "type": "VEC3"
    },
    {
      "bufferView": 1,
      "byteOffset": 172896,
      "componentType": 5126,
      "count": 14408,
      "max": [
        0.99992513656616211,
        0.99731534719467163,
        0.99999666213989258
      ],
      "min": [
        -0.99881929159164429,
        -0.99930316209793091,
        -0.99986279010772705
      ],
      "type": "VEC3"
    },
    {
      "bufferView": 0,
      "componentType": 5125,
      "count": 86784,
      "max": [
        14407
      ],
      "min": [
        0
      ],
      "type": "SCALAR"
    }
  ],
  "asset": {
    "extras": {
      "author": "tonizhang58 (https://sketchfab.com/tonizhang58)",
      "license": "CC-BY-4.0 (http://creativecommons.org/licenses/by/4.0/)",
      "source": "https://sketchfab.com/3d-models/hollow-shadow-19556e6fb9254424b018ae8427927719",
      "title": "Hollow Shadow"
    },
    "generator": "Sketchfab-7.70.0",
    "version": "2.0"
  },
  "bufferViews": [
    {
      "buffer": 0,
      "byteLength": 347136,
      "byteOffset": 0,
      "name": "floatBufferViews",
      "target": 34963
    },
    {
      "buffer": 0,
      "byteLength": 345792,
      "byteOffset": 347136,
      "byteStride": 12,
      "name": "floatBufferViews",
      "target": 34962
    }
  ],
  "buffers": [
    {
      "byteLength": 692928,
      "uri": "scene.bin"
    }
  ],
  "materials": [
    {
      "doubleSided": true,
      "name": "material",
      "pbrMetallicRoughness": {
        "baseColorFactor": [
          1,
          1,
          1,
          1
        ],
        "metallicFactor": 0,
        "roughnessFactor": 0.59999999999999998
      }
    }
  ],
  "meshes": [
    {
      "primitives": [
        {
          "attributes": {
            "NORMAL": 1,
            "POSITION": 0
          },
          "indices": 2,
          "material": 0,
          "mode": 4
        }
      ]
    }
  ],
  "nodes": [
    {
      "children": [
        1
      ],
      "name": "RootNode (gltf orientation matrix)",
      "rotation": [
        -0.70710678118654746,
        -0,
        -0,
        0.70710678118654757
      ]
    },
    {
      "children": [
        2
      ],
      "name": "RootNode (model correction matrix)"
    },
    {
      "children": [
        3
      ],
      "name": "week three.obj.cleaner.materialmerger.gles"
    },
    {
      "mesh": 0,
      "name": ""
    }
  ],
  "scene": 0,
  "scenes": [
    {
      "name": "OSG_Scene",
      "nodes": [
        0
      ]
    }
  ]
}

